<svg width="48" height="48" viewBox="0 0 48 48" fill="none" xmlns="http://www.w3.org/2000/svg">
<mask id="mask0_10_271" style="mask-type:alpha" maskUnits="userSpaceOnUse" x="0" y="0" width="48" height="48">
<rect width="48" height="48" fill="#D9D9D9"/>
</mask>
<g mask="url(#mask0_10_271)">
<path d="M11 44C10.2 44 9.5 43.7 8.9 43.1C8.3 42.5 8 41.8 8 41V15C8 14.2 8.3 13.5 8.9 12.9C9.5 12.3 10.2 12 11 12H16.5V11.5C16.5 9.4 17.225 7.625 18.675 6.175C20.125 4.725 21.9 4 24 4C26.1 4 27.875 4.725 29.325 6.175C30.775 7.625 31.5 9.4 31.5 11.5V12H37C37.8 12 38.5 12.3 39.1 12.9C39.7 13.5 40 14.2 40 15V41C40 41.8 39.7 42.5 39.1 43.1C38.5 43.7 37.8 44 37 44H11ZM11 41H37V15H31.5V19.5C31.5 19.925 31.3554 20.2812 31.0663 20.5688C30.7771 20.8563 30.4187 21 29.9913 21C29.5638 21 29.2083 20.8563 28.925 20.5688C28.6417 20.2812 28.5 19.925 28.5 19.5V15H19.5V19.5C19.5 19.925 19.3554 20.2812 19.0663 20.5688C18.7771 20.8563 18.4187 21 17.9913 21C17.5638 21 17.2083 20.8563 16.925 20.5688C16.6417 20.2812 16.5 19.925 16.5 19.5V15H11V41ZM19.5 12H28.5V11.5C28.5 10.2333 28.0667 9.16667 27.2 8.3C26.3333 7.43333 25.2667 7 24 7C22.7333 7 21.6667 7.43333 20.8 8.3C19.9333 9.16667 19.5 10.2333 19.5 11.5V12Z" fill="#E86100"/>
</g>
</svg>
